<?xml version="1.0" standalone="no"?>
<!DOCTYPE svg PUBLIC "-//W3C//DTD SVG 20010904//EN"
 "http://www.w3.org/TR/2001/REC-SVG-20010904/DTD/svg10.dtd">
<svg version="1.0" xmlns="http://www.w3.org/2000/svg"
 width="90.000000pt" height="90.000000pt" viewBox="0 0 90.000000 90.000000"
 preserveAspectRatio="xMidYMid meet">
<metadata>
Created by potrace 1.14, written by Peter Selinger 2001-2017
</metadata>
<g transform="translate(0.000000,90.000000) scale(0.100000,-0.100000)"
fill="#000000" stroke="none">
<path d="M253 787 l-193 -112 0 -225 0 -225 197 -113 196 -113 56 34 c31 19
118 69 194 113 l137 79 0 225 0 226 -77 45 c-42 24 -93 53 -112 64 -20 11 -72
41 -117 68 -44 26 -83 47 -85 46 -2 0 -91 -50 -196 -112z m372 -36 l170 -99 2
-201 2 -200 -174 -101 -173 -101 -174 99 -173 100 0 202 0 202 170 98 c94 55
172 99 175 99 3 0 82 -44 175 -98z"/>
<path d="M230 477 l0 -148 83 1 c45 1 86 1 90 1 4 -1 3 -10 -3 -21 -6 -11 -14
-19 -18 -19 -17 3 -32 -2 -32 -10 0 -4 45 -8 100 -8 66 1 99 4 97 11 -2 6 -11
10 -20 8 -9 -1 -21 7 -27 18 -10 19 -8 20 62 21 40 1 78 1 85 0 6 -1 14 2 17
7 5 8 9 149 7 247 l-1 40 -220 0 -220 0 0 -148z m405 111 c8 -5 10 -79 6 -206
l-1 -22 -191 2 -192 3 1 98 c0 53 1 105 1 115 1 16 15 18 184 17 100 0 187 -3
192 -7z"/>
<path d="M454 523 c-3 -16 -12 -49 -20 -75 -7 -28 -9 -48 -3 -48 5 0 9 3 9 8
0 4 9 37 19 75 11 37 15 67 10 67 -5 0 -11 -12 -15 -27z"/>
<path d="M367 511 c-63 -30 -64 -37 -12 -60 54 -24 55 -24 55 -12 0 5 -17 16
-37 24 l-38 15 38 15 c20 9 37 21 37 26 0 6 -1 11 -2 10 -2 0 -20 -9 -41 -18z"/>
<path d="M490 519 c0 -6 17 -17 38 -26 l37 -16 -37 -15 c-21 -8 -38 -19 -38
-23 0 -5 2 -9 5 -9 10 0 95 44 95 50 0 3 -22 16 -50 27 -27 12 -50 17 -50 12z"/>
</g>
</svg>
